<svg xmlns="http://www.w3.org/2000/svg" viewBox="0 0 512 512"><path d="M466.271 21.333L256 21.354l-210.271-.021C20.521 21.333 0 41.979 0 67.375c0 6.938 1.583 13.667 4.688 20 34.083 69.958 91.25 169.167 141.688 256.708 26.354 45.75 51.25 88.958 69.25 121.792 8.521 15.521 23.604 24.792 40.396 24.792 16.771 0 31.854-9.271 40.375-24.792 17.979-32.813 42.854-76 69.188-121.708 50.458-87.563 107.625-186.813 141.729-256.75C510.417 81.063 512 74.313 512 67.375c0-25.396-20.521-46.042-45.729-46.042z"/></svg>